<svg preserveAspectRatio="none" width="100%" height="100%" overflow="visible" style="display: block;" viewBox="0 0 127.718 21.7862" fill="none" xmlns="http://www.w3.org/2000/svg">
<g id="Group">
<path id="Vector" d="M24.5394 5.89957H24.4444H24.3494H24.2544H24.1594C24.0032 5.90502 23.848 5.91502 23.6937 5.93139C23.5395 5.94775 23.3852 5.96957 23.2319 5.99775C23.0785 6.02503 22.9261 6.05867 22.7737 6.09776C22.6213 6.13686 22.4699 6.18141 22.3194 6.23141C22.0277 6.32687 21.7512 6.44143 21.4887 6.57416C21.2263 6.7069 20.9779 6.85964 20.7437 7.03056C20.5094 7.20148 20.2902 7.3915 20.0852 7.5997C19.8801 7.80789 19.6891 8.03518 19.5123 8.28156L19.3796 8.45522L19.247 8.62886L19.1144 8.80252L18.9817 8.97616L18.9582 8.96071L18.9347 8.94525L18.9112 8.92979L18.8876 8.91434L18.9347 8.81615L18.9817 8.71796L19.0288 8.61977L19.0758 8.52158C19.1482 8.36612 19.2122 8.21065 19.2668 8.05609C19.3213 7.90154 19.3665 7.74789 19.4032 7.59424C19.4398 7.44059 19.4671 7.28876 19.485 7.13602C19.5029 6.98329 19.5123 6.83237 19.5123 6.68144V6.58325V6.48507V6.38687V6.28869H19.0767H18.6412H18.2056H17.7701C17.3091 6.28869 16.8698 6.37869 16.47 6.54234C16.0702 6.70599 15.7109 6.94237 15.4079 7.23421C15.106 7.52605 14.8614 7.87426 14.6921 8.26065C14.5227 8.64705 14.4296 9.07163 14.4296 9.51711V12.3128V15.1084V17.9041V20.6998C14.4296 20.7907 14.4484 20.8771 14.4832 20.9562C14.518 21.0353 14.5679 21.1053 14.629 21.1653C14.6902 21.2244 14.7636 21.2725 14.8454 21.3062C14.9272 21.3398 15.0166 21.358 15.1107 21.358H16.041H16.9714H17.9018H18.8321C18.9262 21.358 19.0156 21.3398 19.0974 21.3062C19.1793 21.2725 19.2517 21.2244 19.3138 21.1653C19.3749 21.1062 19.4248 21.0353 19.4596 20.9562C19.4944 20.8771 19.5132 20.7907 19.5132 20.6998V18.9051V17.1104V15.3157V13.5211C19.5132 13.2401 19.5339 12.971 19.5744 12.7137C19.6158 12.4573 19.6769 12.2128 19.7587 11.98C19.8406 11.7473 19.9431 11.5273 20.0654 11.32C20.1886 11.1118 20.3316 10.9163 20.4953 10.7327C20.659 10.549 20.8396 10.3899 21.0381 10.2535C21.2366 10.1172 21.452 10.0044 21.6844 9.91533C21.9167 9.82623 22.167 9.76077 22.4341 9.71803C22.7013 9.67621 22.9854 9.65712 23.2874 9.66258L23.5978 9.66712L23.9082 9.67167L24.2187 9.67622L24.5291 9.68076C24.6241 9.68258 24.7144 9.66531 24.7972 9.63258C24.88 9.59985 24.9543 9.55166 25.0173 9.49256C25.0804 9.43256 25.1312 9.36165 25.166 9.28255C25.2008 9.20345 25.2205 9.11618 25.2205 9.02435V8.40612V7.78789V7.17512V6.55689C25.2205 6.46597 25.2017 6.3796 25.1669 6.30051C25.1321 6.22141 25.0822 6.1514 25.0211 6.0914C24.9599 6.0323 24.8866 5.98412 24.8047 5.95048C24.7229 5.91866 24.6335 5.89957 24.5394 5.89957Z" fill="var(--fill-0, #102C57)"/>
<path id="Vector_2" d="M75.4423 12.47L74.6474 12.3419L73.8525 12.2137L73.0576 12.0855L72.2627 11.9573C72.0181 11.9173 71.7933 11.8755 71.5882 11.8309C71.3831 11.7873 71.1968 11.7409 71.0303 11.6936C70.8638 11.6464 70.7171 11.5963 70.5901 11.5445C70.4631 11.4927 70.3549 11.44 70.2665 11.3845C70.1781 11.3291 70.1009 11.2681 70.0341 11.2C69.9683 11.1318 69.9128 11.0581 69.8686 10.9781C69.8243 10.8981 69.7914 10.8108 69.7688 10.7181C69.7472 10.6254 69.7359 10.5263 69.7359 10.4208C69.7359 10.3053 69.7519 10.1953 69.783 10.0917C69.814 9.98804 69.861 9.89076 69.9231 9.79894C69.9852 9.70711 70.0633 9.62165 70.1574 9.54165C70.2514 9.46164 70.3606 9.388 70.4847 9.31981C70.6098 9.25163 70.7434 9.19253 70.8883 9.14162C71.0322 9.0907 71.1865 9.04797 71.3502 9.01433C71.5139 8.98069 71.687 8.95524 71.8704 8.93797C72.0538 8.92069 72.2467 8.91251 72.4489 8.91251C72.8553 8.91251 73.2184 8.9416 73.5383 8.99979C73.8581 9.05797 74.1347 9.14434 74.368 9.26072C74.6013 9.37709 74.7913 9.52164 74.9381 9.69529C75.0848 9.86894 75.1883 10.0726 75.2494 10.3044C75.256 10.3299 75.2664 10.3526 75.2795 10.3744C75.2927 10.3953 75.3096 10.4144 75.3285 10.4299C75.3473 10.4453 75.3689 10.4581 75.3924 10.4672C75.4159 10.4763 75.4413 10.4808 75.4686 10.4808H76.6012H77.7339H78.8665H79.9991C80.033 10.4808 80.0649 10.4735 80.0941 10.4617C80.1233 10.449 80.1496 10.4308 80.1712 10.409C80.1929 10.3872 80.2107 10.3608 80.222 10.3326C80.2333 10.3044 80.239 10.2726 80.2362 10.2408C80.2136 9.90349 80.1534 9.58438 80.0565 9.28344C79.9596 8.98251 79.8241 8.70067 79.6529 8.43702C79.4808 8.17336 79.2719 7.92789 79.0245 7.70151C78.778 7.47513 78.4939 7.26602 78.1722 7.07692C77.8317 6.87599 77.4582 6.70052 77.05 6.5496C76.6426 6.39868 76.2014 6.27322 75.7273 6.17321C75.2532 6.07229 74.7452 5.99774 74.2043 5.94683C73.6634 5.89591 73.0886 5.87137 72.48 5.87137C71.8666 5.87137 71.2862 5.89864 70.7387 5.95228C70.1912 6.00592 69.6757 6.08775 69.1941 6.19503C68.7124 6.30322 68.2628 6.43778 67.846 6.59961C67.4293 6.76144 67.0455 6.95054 66.6946 7.16601C66.3437 7.38239 66.037 7.61786 65.7736 7.87425C65.5102 8.13063 65.2911 8.40701 65.1161 8.7034C64.9411 8.99979 64.8094 9.31617 64.721 9.65256C64.6335 9.98895 64.5893 10.3453 64.5893 10.7226C64.5893 11.3254 64.6975 11.8709 64.9129 12.36C65.1283 12.8483 65.4519 13.2801 65.8837 13.6547C66.3155 14.0293 66.8545 14.3456 67.5017 14.6057C68.1489 14.8657 68.9043 15.0684 69.767 15.2139L70.5308 15.3348L71.2947 15.4557L72.0585 15.5766L72.8224 15.6976C73.0924 15.743 73.3398 15.7885 73.5637 15.8358C73.7876 15.883 73.9889 15.9312 74.1667 15.9803C74.3445 16.0294 74.4997 16.0794 74.6314 16.1303C74.7631 16.1812 74.8722 16.2331 74.9578 16.2858C75.0434 16.3385 75.1187 16.3976 75.1826 16.4622C75.2466 16.5267 75.3002 16.5976 75.3435 16.674C75.3868 16.7504 75.4188 16.8331 75.4404 16.9213C75.462 17.0095 75.4724 17.104 75.4724 17.205C75.4724 17.3159 75.4554 17.4213 75.4216 17.5222C75.3877 17.6232 75.3369 17.7195 75.2692 17.8114C75.2015 17.9032 75.1168 17.9905 75.0161 18.0723C74.9145 18.1541 74.797 18.2323 74.6615 18.305C74.526 18.3778 74.3802 18.4414 74.225 18.496C74.0688 18.5505 73.9023 18.596 73.7264 18.6323C73.5496 18.6687 73.3624 18.696 73.1648 18.7142C72.9673 18.7323 72.7594 18.7414 72.5411 18.7414C72.1122 18.7414 71.7274 18.7123 71.3869 18.6532C71.0454 18.5941 70.7481 18.5069 70.4951 18.3896C70.242 18.2723 70.0322 18.1259 69.8657 17.9496C69.6992 17.7732 69.5779 17.5686 69.4989 17.3331C69.4913 17.3104 69.48 17.2886 69.4659 17.2695C69.4518 17.2504 69.4358 17.2331 69.417 17.2186C69.3982 17.204 69.3775 17.1931 69.3549 17.1859C69.3324 17.1786 69.3088 17.174 69.2834 17.174H68.0887H66.894H65.6993H64.5046C64.4698 17.174 64.4369 17.1813 64.4068 17.195C64.3767 17.2086 64.3503 17.2277 64.3278 17.2513C64.3061 17.275 64.2892 17.3022 64.2789 17.3322C64.2685 17.3622 64.2647 17.395 64.2685 17.4277C64.3118 17.7641 64.3917 18.0823 64.5103 18.3814C64.6279 18.6805 64.7831 18.9624 64.9759 19.2251C65.1688 19.4879 65.3992 19.7324 65.6664 19.9579C65.9345 20.1843 66.2393 20.3916 66.5817 20.5807C66.9458 20.7816 67.3418 20.9571 67.7708 21.108C68.1997 21.2589 68.6607 21.3844 69.1546 21.4844C69.6484 21.5844 70.1743 21.6598 70.7331 21.7107C71.2919 21.7608 71.8836 21.7862 72.5073 21.7862C73.1413 21.7862 73.7424 21.758 74.3115 21.7017C74.8807 21.6453 75.4159 21.5607 75.9183 21.4471C76.4216 21.3344 76.891 21.1925 77.3284 21.0234C77.7658 20.8543 78.1703 20.6561 78.5419 20.4297C78.9135 20.2034 79.239 19.9579 79.5174 19.6915C79.7959 19.4251 80.0283 19.1387 80.2145 18.8323C80.4008 18.526 80.54 18.1996 80.6331 17.8532C80.7263 17.5068 80.7724 17.1395 80.7724 16.7531C80.7724 16.1758 80.6613 15.653 80.4393 15.1857C80.2173 14.7184 79.8834 14.3066 79.4394 13.9502C78.9953 13.5938 78.4394 13.2919 77.7724 13.0455C77.1083 12.7973 76.3312 12.6064 75.4423 12.47Z" fill="var(--fill-0, #102C57)"/>
<path id="Vector_3" d="M108.592 7.9497C108.179 7.60786 107.735 7.30875 107.262 7.05145C106.789 6.79416 106.284 6.57869 105.75 6.40504C105.216 6.23139 104.651 6.10047 104.057 6.01137C103.462 5.92228 102.838 5.875 102.183 5.87045C101.533 5.875 100.913 5.92318 100.322 6.01228C99.7315 6.10229 99.1708 6.23412 98.6393 6.40868C98.1078 6.58324 97.6064 6.80052 97.1332 7.05964C96.661 7.31875 96.2179 7.62059 95.805 7.96425C95.392 8.30882 95.0298 8.67703 94.7203 9.06888C94.4108 9.46164 94.1521 9.87803 93.9452 10.319C93.7382 10.7599 93.5839 11.2245 93.4805 11.7136C93.377 12.2027 93.3252 12.7164 93.3252 13.2537V13.5174V13.7811V14.0447V14.3084C93.3252 14.8757 93.376 15.4148 93.4767 15.9258C93.5774 16.4367 93.7288 16.9186 93.9301 17.3713C94.1314 17.8241 94.3835 18.2496 94.6855 18.646C94.9875 19.0424 95.3402 19.4097 95.7429 19.7488C96.1455 20.0879 96.582 20.3843 97.0514 20.6388C97.5208 20.8934 98.0241 21.1052 98.5612 21.2743C99.0984 21.4444 99.6685 21.5707 100.271 21.6562C100.875 21.7407 101.512 21.7835 102.183 21.7835C102.755 21.7835 103.303 21.7526 103.828 21.6898C104.353 21.6271 104.855 21.5344 105.332 21.4098C105.81 21.2853 106.266 21.1298 106.697 20.9434C107.127 20.757 107.536 20.5397 107.92 20.2906C108.27 20.0643 108.59 19.8188 108.881 19.5542C109.172 19.2896 109.432 19.0051 109.664 18.7014C109.895 18.3978 110.097 18.0741 110.269 17.7314C110.442 17.3886 110.584 17.0268 110.698 16.6449C110.715 16.5867 110.717 16.5276 110.704 16.4731C110.691 16.4185 110.666 16.3667 110.631 16.3231C110.595 16.2794 110.55 16.2431 110.497 16.2167C110.444 16.1912 110.385 16.1767 110.322 16.1767H109.233H108.143H107.054H105.965C105.925 16.1767 105.888 16.1831 105.852 16.194C105.816 16.2049 105.782 16.2221 105.752 16.2431C105.721 16.264 105.694 16.2894 105.67 16.3185C105.647 16.3476 105.627 16.3794 105.612 16.4149C105.455 16.7867 105.266 17.1131 105.045 17.3922C104.824 17.6713 104.57 17.9041 104.284 18.0905C103.998 18.2768 103.68 18.4159 103.329 18.5096C102.978 18.6023 102.596 18.6496 102.18 18.6496C101.9 18.6496 101.633 18.6278 101.38 18.5851C101.127 18.5414 100.888 18.4769 100.663 18.3905C100.438 18.3041 100.227 18.1959 100.031 18.0659C99.834 17.9359 99.6506 17.7841 99.4822 17.6113C99.3129 17.4377 99.1652 17.254 99.0391 17.0586C98.9121 16.8631 98.8068 16.6567 98.7221 16.4394C98.6374 16.2221 98.5744 15.9939 98.5321 15.7548C98.4898 15.5157 98.4691 15.2657 98.4691 15.0039V14.9357V14.8675V14.7993V14.7311H101.523H104.576H107.63H110.683C110.737 14.7311 110.787 14.7211 110.834 14.702C110.88 14.6829 110.921 14.6557 110.956 14.622C110.991 14.5884 111.019 14.5484 111.039 14.5038C111.059 14.4593 111.069 14.4102 111.069 14.3593V14.0829V13.8065V13.5301V13.2537C111.069 12.711 111.017 12.1937 110.914 11.7018C110.81 11.2099 110.655 10.7426 110.449 10.3008C110.242 9.85894 109.984 9.44163 109.674 9.04978C109.367 8.65794 109.006 8.29064 108.592 7.9497ZM105.673 12.0782H103.928H102.183H100.438H98.6929C98.6685 12.0782 98.645 12.0727 98.6243 12.0627C98.6036 12.0527 98.5857 12.0382 98.5707 12.0209C98.5565 12.0036 98.5453 11.9836 98.5396 11.9618C98.534 11.94 98.5321 11.9173 98.5377 11.8936C98.5838 11.6745 98.645 11.4663 98.7193 11.27C98.7936 11.0736 98.882 10.8881 98.9846 10.7135C99.0871 10.539 99.2028 10.3762 99.3336 10.2244C99.4634 10.0726 99.6083 9.93258 99.7663 9.80257C99.9347 9.66438 100.113 9.54346 100.302 9.43981C100.49 9.33617 100.686 9.2498 100.893 9.1807C101.1 9.11161 101.316 9.05978 101.541 9.02524C101.767 8.99069 102.001 8.97342 102.246 8.97342C102.491 8.97342 102.724 8.99069 102.947 9.02524C103.17 9.05978 103.381 9.11161 103.583 9.1807C103.784 9.2498 103.975 9.33617 104.155 9.43981C104.334 9.54346 104.504 9.66438 104.663 9.80257C104.811 9.93167 104.947 10.0726 105.069 10.2244C105.191 10.3762 105.301 10.539 105.398 10.7135C105.495 10.8881 105.58 11.0736 105.651 11.27C105.723 11.4663 105.782 11.6745 105.827 11.8945C105.832 11.9182 105.831 11.9409 105.825 11.9627C105.82 11.9846 105.808 12.0046 105.794 12.0218C105.78 12.0391 105.761 12.0537 105.741 12.0637C105.721 12.0727 105.697 12.0782 105.673 12.0782Z" fill="var(--fill-0, #102C57)"/>
<path id="Vector_4" d="M125.165 17.775H123.48H121.795H120.11H118.425V17.7377V17.7004V17.6632V17.6259L120.198 16.063L121.97 14.5002L123.742 12.9373L125.514 11.3745C125.855 11.0736 126.16 10.7426 126.424 10.3862C126.688 10.0299 126.913 9.64891 127.096 9.24979C127.278 8.85067 127.418 8.43337 127.512 8.00424C127.606 7.57512 127.655 7.13418 127.655 6.68869V6.67505V6.66141V6.64778V6.63414C127.655 6.58686 127.645 6.54231 127.627 6.5014C127.609 6.46049 127.584 6.42412 127.552 6.39321C127.52 6.3623 127.482 6.33775 127.44 6.32048C127.398 6.30321 127.352 6.29411 127.303 6.29411H123.611H119.92H116.229H112.537C112.488 6.29411 112.442 6.30321 112.4 6.32048C112.358 6.33775 112.32 6.3623 112.288 6.39321C112.256 6.42412 112.231 6.46049 112.213 6.5014C112.195 6.54231 112.186 6.58686 112.186 6.63414V6.8287V7.02326V7.21782V7.41238C112.186 7.75331 112.257 8.07788 112.386 8.37245C112.515 8.66793 112.702 8.9334 112.933 9.15706C113.165 9.38071 113.439 9.56072 113.745 9.68619C114.051 9.81074 114.387 9.87984 114.739 9.87984H116.423H118.108H119.793H121.478V9.91711V9.95439V9.99166V10.0289L119.675 11.5982L117.873 13.1683L116.07 14.7375L114.266 16.3067C113.921 16.6076 113.613 16.9404 113.344 17.2977C113.075 17.6559 112.847 18.0386 112.662 18.4405C112.476 18.8423 112.334 19.2624 112.239 19.6951C112.144 20.1279 112.094 20.5716 112.094 21.0207C112.094 21.068 112.104 21.1125 112.122 21.1534C112.139 21.1943 112.165 21.2307 112.197 21.2616C112.229 21.2925 112.266 21.3171 112.309 21.3343C112.351 21.3516 112.397 21.3607 112.446 21.3607H116.176H119.906H123.636H127.366C127.415 21.3607 127.461 21.3516 127.503 21.3343C127.545 21.3171 127.583 21.2925 127.615 21.2616C127.647 21.2307 127.672 21.1943 127.69 21.1534C127.708 21.1125 127.718 21.068 127.718 21.0207V20.8261V20.6316V20.437V20.2424C127.718 19.9015 127.646 19.5769 127.517 19.2824C127.388 18.9869 127.201 18.7214 126.97 18.4978C126.738 18.2741 126.464 18.0941 126.158 17.9686C125.853 17.8441 125.517 17.775 125.165 17.775Z" fill="var(--fill-0, #102C57)"/>
<path id="Vector_5" d="M93.09 6.42231C93.0731 6.41412 93.0552 6.40776 93.0373 6.4023C93.0195 6.39685 93.0025 6.39321 92.9865 6.39048C92.9705 6.38776 92.9555 6.38594 92.9423 6.38412C92.9292 6.38321 92.9179 6.3823 92.9094 6.3823H92.9075H92.9056H92.9038H92.9019H92.9H92.8981H92.8962H92.8943H92.504H92.1136H91.7213H91.3309H90.9405H90.5501H90.1597H89.7693C89.7524 6.3823 89.7364 6.38049 89.7204 6.37776C89.7044 6.37503 89.6893 6.37048 89.6752 6.36412C89.6611 6.35866 89.647 6.35139 89.6348 6.3423C89.6216 6.33412 89.6103 6.32412 89.599 6.31412C89.5877 6.30321 89.5783 6.2923 89.5699 6.27957C89.5614 6.26684 89.5539 6.25411 89.5473 6.24047C89.5417 6.22684 89.5369 6.21229 89.5332 6.19683C89.5294 6.18138 89.5285 6.16592 89.5285 6.14956V5.95772V5.76589V5.57406V5.38223V5.1904V4.99856V4.80673V4.6149C89.5313 4.49216 89.5426 4.37761 89.5633 4.27123C89.584 4.16486 89.6141 4.06485 89.6527 3.97303C89.6912 3.8812 89.7392 3.79756 89.7956 3.72028C89.8521 3.643 89.9179 3.57482 89.9932 3.5139C90.0685 3.45299 90.1522 3.39935 90.2453 3.35298C90.3384 3.30661 90.44 3.26843 90.551 3.23843C90.662 3.20843 90.7825 3.18479 90.9113 3.16933C91.0402 3.15388 91.1785 3.1466 91.3262 3.1466C91.3281 3.1466 91.329 3.1466 91.3309 3.1466C91.3328 3.1466 91.3337 3.1466 91.3356 3.1466C91.3375 3.1466 91.3384 3.1466 91.3403 3.1466C91.3422 3.1466 91.3431 3.1466 91.345 3.1466C91.3469 3.1466 91.3478 3.1466 91.3497 3.1466C91.3516 3.1466 91.3525 3.1466 91.3544 3.1466C91.3563 3.1466 91.3572 3.1466 91.3591 3.1466C91.361 3.1466 91.3619 3.1466 91.3638 3.1466C91.3638 3.1466 91.3685 3.1466 91.377 3.1466C91.3854 3.1466 91.3977 3.14478 91.4127 3.14297C91.4278 3.14024 91.4466 3.1366 91.4673 3.13115C91.488 3.12569 91.5115 3.11751 91.536 3.1066C91.5604 3.09569 91.5877 3.08296 91.615 3.06569C91.6423 3.04841 91.6705 3.02841 91.6996 3.00295C91.7279 2.97841 91.757 2.94932 91.7853 2.91477C91.8135 2.88022 91.8417 2.84113 91.868 2.79658L92.043 2.49928L92.218 2.20199L92.393 1.90469L92.5679 1.6074L92.7429 1.3101L92.9179 1.01281L93.0928 0.715511L93.2678 0.418214C93.2819 0.394576 93.2913 0.372757 93.2979 0.353664C93.3045 0.333663 93.3073 0.316389 93.3073 0.300024C93.3073 0.28366 93.3054 0.269112 93.3007 0.256384C93.296 0.243655 93.2894 0.231836 93.281 0.221835C93.2725 0.211834 93.2631 0.202745 93.2528 0.195472C93.2424 0.188198 93.2311 0.181832 93.2198 0.176377C93.2086 0.170922 93.1963 0.166377 93.185 0.16274C93.1737 0.159104 93.1634 0.156377 93.153 0.154558C93.0326 0.14183 92.9122 0.130012 92.7899 0.119102C92.6676 0.108193 92.5453 0.0972802 92.4212 0.0881886C92.297 0.0781879 92.1728 0.0700074 92.0468 0.061825C91.9207 0.0536425 91.7947 0.0463674 91.6667 0.0400033C91.5388 0.0336391 91.4108 0.028184 91.281 0.022729C91.1512 0.0181832 91.0214 0.0136388 90.8897 0.0100022C90.758 0.00636556 90.6263 0.00454569 90.4927 0.00272737C90.3591 0.000909049 90.2246 0 90.0891 0C89.8493 0 89.6169 0.00636523 89.3921 0.0181843C89.1672 0.0300034 88.9509 0.0481862 88.743 0.0718244C88.5341 0.0954626 88.3338 0.125466 88.1409 0.160923C87.9481 0.19638 87.7637 0.238201 87.5859 0.285478C87.4091 0.332754 87.2397 0.386395 87.0789 0.445491C86.918 0.504586 86.7647 0.570045 86.6189 0.640959C86.4731 0.711874 86.3357 0.789153 86.2068 0.871887C86.078 0.95462 85.9557 1.04372 85.8418 1.13827C85.728 1.23282 85.6217 1.33465 85.522 1.44284C85.4223 1.55103 85.3301 1.66649 85.2445 1.78741C85.1589 1.90924 85.0808 2.03743 85.0102 2.17289C84.9388 2.30836 84.8757 2.45019 84.8183 2.59838C84.7619 2.74657 84.712 2.90204 84.6688 3.06387C84.6255 3.2257 84.5907 3.3948 84.5625 3.57027C84.5342 3.74574 84.5126 3.92757 84.4985 4.11668C84.4844 4.30578 84.4769 4.50125 84.4769 4.70308V4.88401V5.06493V5.24585V5.42677V5.6077V5.78862V5.96954V6.15047C84.4769 6.16683 84.475 6.18229 84.4722 6.19774C84.4693 6.2132 84.4646 6.22775 84.458 6.24138C84.4524 6.25502 84.4449 6.26866 84.4355 6.28048C84.427 6.29321 84.4167 6.30412 84.4063 6.31503C84.395 6.32594 84.3837 6.33503 84.3706 6.34321C84.3574 6.35139 84.3442 6.35866 84.3301 6.36503C84.316 6.37048 84.3009 6.37503 84.2849 6.37867C84.269 6.38139 84.253 6.38321 84.236 6.38321H84.0742H83.9134H83.7516H83.5898H83.428H83.2662H83.1044H82.9426C82.8965 6.38321 82.8513 6.38776 82.808 6.39594C82.7648 6.40412 82.7224 6.41685 82.6829 6.43322C82.6434 6.44958 82.6048 6.46958 82.57 6.49231C82.5352 6.51504 82.5014 6.54141 82.4713 6.5705C82.4412 6.59959 82.4139 6.63141 82.3904 6.66596C82.3668 6.70051 82.3462 6.73688 82.3292 6.77506C82.3123 6.81325 82.2991 6.85416 82.2906 6.89598C82.2822 6.9378 82.2775 6.98144 82.2775 7.02599V7.31055V7.59512V7.87969V8.16426V8.44882V8.73339V9.01796V9.30253C82.2775 9.34708 82.2822 9.39071 82.2906 9.43254C82.2991 9.47436 82.3123 9.51527 82.3292 9.55345C82.3462 9.59163 82.3668 9.62891 82.3904 9.66255C82.4139 9.6971 82.4412 9.72892 82.4713 9.75801C82.5014 9.7871 82.5343 9.81347 82.57 9.8362C82.6058 9.85893 82.6434 9.87893 82.6829 9.89529C82.7224 9.91166 82.7648 9.92439 82.808 9.93257C82.8513 9.94076 82.8965 9.9453 82.9426 9.9453H83.1044H83.2662H83.428H83.5898H83.7516H83.9134H84.0752H84.237C84.2539 9.9453 84.2699 9.94712 84.2859 9.94985C84.3019 9.95258 84.3169 9.95712 84.331 9.96348C84.3452 9.96894 84.3593 9.97621 84.3715 9.9853C84.3847 9.99348 84.396 10.0035 84.4072 10.0135C84.4185 10.0244 84.4279 10.0353 84.4364 10.048C84.4449 10.0608 84.4524 10.0735 84.459 10.0871C84.4646 10.1008 84.4693 10.1153 84.4731 10.1308C84.4759 10.1462 84.4778 10.1617 84.4778 10.178V11.4991V12.8201V14.1411V15.4621V16.7831V18.1041V19.4251V20.7461C84.4778 20.7907 84.4825 20.8343 84.491 20.8761C84.4994 20.918 84.5126 20.9589 84.5295 20.997C84.5465 21.0352 84.5672 21.0725 84.5907 21.1061C84.6142 21.1398 84.6415 21.1725 84.6725 21.2016C84.7026 21.2307 84.7356 21.2571 84.7713 21.2798C84.807 21.3025 84.8447 21.3225 84.8842 21.3389C84.9237 21.3553 84.966 21.368 85.0093 21.3762C85.0526 21.3843 85.0977 21.3889 85.1438 21.3889H85.6085H86.0732H86.538H87.0027H87.4674H87.9321H88.3968H88.8615C88.9076 21.3889 88.9528 21.3843 88.996 21.3762C89.0393 21.368 89.0816 21.3553 89.1212 21.3389C89.1607 21.3225 89.1992 21.3025 89.234 21.2798C89.2698 21.2571 89.3027 21.2307 89.3328 21.2016C89.3629 21.1725 89.3902 21.1407 89.4137 21.1061C89.4372 21.0716 89.4579 21.0352 89.4749 20.997C89.4918 20.9589 89.505 20.918 89.5134 20.8761C89.5219 20.8343 89.5266 20.7907 89.5266 20.7461V19.4297V18.1132V16.7967V15.4803V14.1638V12.8473V11.5309V10.2144V10.2126V10.2108V10.209V10.2071V10.2053V10.2035V10.2017V10.1999C89.5266 10.1999 89.5275 10.1862 89.5285 10.1762C89.5294 10.1662 89.5313 10.1562 89.5332 10.1444C89.5351 10.1326 89.5388 10.1208 89.5426 10.1071C89.5464 10.0944 89.552 10.0808 89.5586 10.0671C89.5652 10.0535 89.5727 10.0408 89.5821 10.0271C89.5915 10.0135 89.6028 10.0017 89.616 9.98985C89.6291 9.97803 89.6442 9.96712 89.6611 9.95803C89.6781 9.94894 89.6969 9.94075 89.7185 9.93439C89.806 9.93075 89.8916 9.9253 89.9744 9.91711C90.0581 9.90893 90.139 9.89802 90.218 9.88621C90.297 9.87348 90.3742 9.85893 90.4494 9.84257C90.5247 9.8262 90.5981 9.80711 90.6686 9.78619C90.7401 9.76528 90.8088 9.74346 90.8765 9.71892C90.9443 9.69437 91.0092 9.66892 91.0731 9.64073C91.1371 9.61346 91.1982 9.58345 91.2584 9.55345C91.3187 9.52345 91.377 9.49072 91.4334 9.45708C91.5962 9.3598 91.7448 9.25252 91.8803 9.13615C92.0157 9.01978 92.138 8.89613 92.2481 8.76703C92.3581 8.63793 92.456 8.50428 92.5435 8.36882C92.631 8.23335 92.7081 8.09607 92.7749 7.96151C92.8426 7.82605 92.9 7.6924 92.9499 7.5633C92.9997 7.4342 93.0411 7.30965 93.0759 7.19327C93.1107 7.0769 93.1389 6.96871 93.1615 6.87052C93.1841 6.77233 93.201 6.68687 93.2133 6.61505C93.2142 6.58868 93.2104 6.56413 93.2048 6.54322C93.1982 6.52231 93.1888 6.50413 93.1775 6.48777C93.1662 6.4714 93.1521 6.45776 93.1371 6.44595C93.122 6.43413 93.107 6.43049 93.09 6.42231Z" fill="var(--fill-0, #102C57)"/>
<path id="Vector_6" d="M40.444 7.24696C40.2634 7.12968 40.0743 7.02058 39.8787 6.91784C39.683 6.81511 39.4798 6.72055 39.2691 6.63237C39.0584 6.54418 38.8401 6.46417 38.6153 6.39144C38.3895 6.31871 38.1572 6.25234 37.9173 6.19415C37.6774 6.13596 37.43 6.08414 37.175 6.0405C36.9201 5.99686 36.6577 5.9605 36.3877 5.93049C36.1177 5.9014 35.8411 5.87958 35.5561 5.86503C35.272 5.85049 34.9794 5.84322 34.6803 5.84322C34.3858 5.84322 34.098 5.8514 33.8176 5.86685C33.5364 5.88231 33.2626 5.90595 32.9945 5.93777C32.7264 5.96959 32.4658 6.00868 32.2109 6.05596C31.956 6.10324 31.7086 6.15779 31.4668 6.22143C31.225 6.28416 30.9908 6.35507 30.7622 6.43326C30.5336 6.51145 30.3126 6.59873 30.0971 6.69237C29.8817 6.78692 29.6738 6.88875 29.4716 6.99876C29.2693 7.10877 29.0746 7.22696 28.8855 7.35242C28.7322 7.45425 28.5864 7.5588 28.4481 7.66517C28.3098 7.77245 28.1781 7.88155 28.053 7.99338C27.9288 8.1052 27.8112 8.21976 27.7011 8.33613C27.5911 8.45251 27.4876 8.57251 27.3916 8.69343C27.2957 8.81526 27.2063 8.9389 27.1245 9.06619C27.0426 9.19256 26.9674 9.32166 26.9006 9.45349C26.8329 9.58532 26.7727 9.71896 26.719 9.85534C26.6654 9.99171 26.6193 10.1308 26.5798 10.2726C26.5657 10.3245 26.5582 10.3763 26.5572 10.4272C26.5563 10.4781 26.561 10.5281 26.5723 10.5763C26.5836 10.6245 26.5996 10.6709 26.6212 10.7154C26.6428 10.76 26.6692 10.8009 26.7012 10.84C26.7322 10.8781 26.768 10.9136 26.8065 10.9445C26.846 10.9754 26.8884 11.0027 26.9345 11.0254C26.9806 11.0482 27.0295 11.0654 27.0812 11.0772C27.1329 11.0891 27.1866 11.0954 27.2421 11.0954H27.7152H28.1884H28.6616H29.1348H29.608H30.0811H30.5543H31.0275C31.0585 11.0954 31.0896 11.0936 31.1197 11.0891C31.1498 11.0845 31.1799 11.0791 31.2091 11.0709C31.2382 11.0627 31.2664 11.0527 31.2937 11.0409C31.321 11.0291 31.3483 11.0154 31.3737 11.0009C31.3991 10.9854 31.4235 10.9691 31.4471 10.9509C31.4706 10.9327 31.4931 10.9127 31.5138 10.8918C31.5345 10.8709 31.5552 10.8481 31.5731 10.8245C31.5919 10.8009 31.6089 10.7754 31.6239 10.749C31.6493 10.7054 31.6766 10.6636 31.7048 10.6218C31.733 10.5799 31.7631 10.539 31.7942 10.499C31.8252 10.459 31.8581 10.4199 31.893 10.3817C31.9278 10.3436 31.9635 10.3063 32.0011 10.2699C32.0388 10.2335 32.0773 10.1981 32.1178 10.1626C32.1582 10.1272 32.2006 10.0935 32.2438 10.0608C32.2871 10.0281 32.3323 9.99535 32.3784 9.96444C32.4245 9.93352 32.4724 9.90261 32.5223 9.87261C32.5872 9.83352 32.6549 9.79715 32.7236 9.7626C32.7932 9.72806 32.8647 9.69714 32.9381 9.66805C33.0115 9.63896 33.0877 9.61168 33.1648 9.58804C33.2429 9.56349 33.3228 9.54168 33.4047 9.52259C33.4865 9.50349 33.5712 9.48622 33.6568 9.47167C33.7433 9.45713 33.8318 9.4453 33.9221 9.4353C34.0124 9.4253 34.1055 9.41803 34.1996 9.41349C34.2946 9.40894 34.3915 9.40621 34.4903 9.40621C34.589 9.40621 34.6859 9.40894 34.7809 9.4144C34.876 9.41985 34.9691 9.42803 35.0594 9.43803C35.1506 9.44894 35.2391 9.46167 35.3256 9.47804C35.4122 9.4944 35.4968 9.51259 35.5796 9.5344C35.6624 9.55622 35.7433 9.57986 35.8214 9.60623C35.9004 9.63259 35.9766 9.6626 36.0509 9.69442C36.1252 9.72624 36.1977 9.76078 36.2682 9.79897C36.3388 9.83624 36.4074 9.87625 36.4733 9.91898C36.5401 9.96171 36.6022 10.0053 36.6595 10.0508C36.7169 10.0963 36.7715 10.1417 36.8213 10.189C36.8712 10.2363 36.9164 10.2845 36.9587 10.3336C37.0001 10.3826 37.0377 10.4336 37.0706 10.4854C37.1036 10.5372 37.1327 10.5899 37.1581 10.6436C37.1826 10.6972 37.2042 10.7518 37.2202 10.8081C37.2371 10.8645 37.2494 10.9209 37.2578 10.9791C37.2663 11.0372 37.2701 11.0963 37.2701 11.1573V11.1754V11.1945V11.2136V11.2327V11.2518V11.2709V11.29V11.3091C37.2701 11.3518 37.2654 11.3927 37.256 11.4318C37.2465 11.4709 37.2334 11.5082 37.2146 11.5427C37.1967 11.5782 37.1732 11.6109 37.1459 11.6427C37.1186 11.6746 37.0866 11.7037 37.0499 11.7318C37.0133 11.7591 36.9728 11.7855 36.9267 11.8091C36.8806 11.8328 36.8307 11.8546 36.7762 11.8755C36.7216 11.8955 36.6624 11.9137 36.5984 11.93C36.5344 11.9464 36.4667 11.961 36.3933 11.9737L35.8816 12.0491L35.3698 12.1246L34.8581 12.2001L34.3463 12.2755L33.8346 12.351L33.3228 12.4264L32.8111 12.5019L32.2993 12.5774C32.0444 12.6174 31.7961 12.661 31.5552 12.7083C31.3144 12.7556 31.0811 12.8047 30.8553 12.8583C30.6296 12.911 30.4104 12.9674 30.1987 13.0274C29.9871 13.0874 29.7829 13.1501 29.5854 13.2156C29.3878 13.282 29.1978 13.3511 29.0153 13.4238C28.8328 13.4965 28.6569 13.572 28.4885 13.6511C28.3201 13.7302 28.1593 13.812 28.0059 13.8975C27.8526 13.9829 27.7058 14.0711 27.5666 14.1629C27.4274 14.2548 27.2966 14.352 27.1753 14.4548C27.053 14.5575 26.9401 14.6657 26.8357 14.7793C26.7313 14.893 26.6353 15.0121 26.5488 15.1366C26.4613 15.2612 26.3832 15.3912 26.3136 15.5258C26.244 15.6612 26.1828 15.8012 26.1311 15.9476C26.0784 16.094 26.0351 16.2449 26.0003 16.4022C25.9655 16.5595 25.9392 16.7213 25.9223 16.8895C25.9044 17.0577 25.8959 17.2304 25.8959 17.4095C25.8959 17.5705 25.9044 17.7278 25.9213 17.8814C25.9382 18.035 25.9646 18.1851 25.9985 18.3314C26.0323 18.4778 26.0756 18.6205 26.1273 18.7587C26.1791 18.8978 26.2393 19.0324 26.3079 19.1642C26.3766 19.2961 26.4547 19.4233 26.5403 19.5479C26.6259 19.6724 26.7219 19.7925 26.8253 19.9088C26.9288 20.0252 27.0408 20.1388 27.1621 20.2479C27.2835 20.357 27.4123 20.4625 27.5506 20.5643C27.6889 20.6662 27.8319 20.7616 27.9805 20.8507C28.1292 20.9398 28.2834 21.0225 28.4424 21.0989C28.6014 21.1753 28.767 21.2453 28.9372 21.3089C29.1075 21.3726 29.2834 21.4298 29.464 21.4808C29.6447 21.5317 29.8309 21.5762 30.0228 21.6144C30.2147 21.6526 30.4113 21.6844 30.6136 21.7099C30.8158 21.7353 31.0237 21.7544 31.2373 21.7671C31.4508 21.7799 31.6691 21.7862 31.893 21.7862C32.0435 21.7862 32.194 21.7835 32.3436 21.7771C32.4931 21.7717 32.6418 21.7626 32.7895 21.7508C32.9371 21.739 33.0848 21.7244 33.2316 21.7071C33.3783 21.6899 33.5242 21.669 33.669 21.6462C33.8139 21.6226 33.9588 21.5971 34.1027 21.568C34.2466 21.5389 34.3896 21.5071 34.5317 21.4717C34.6737 21.4362 34.8157 21.3989 34.9559 21.358C35.097 21.3171 35.2362 21.2735 35.3764 21.2271C35.5156 21.1807 35.6502 21.1307 35.7809 21.0789C35.9117 21.0262 36.0377 20.9716 36.16 20.9134C36.2823 20.8553 36.3999 20.7943 36.5128 20.7298C36.6257 20.6652 36.7357 20.5989 36.8402 20.5289C36.9446 20.4589 37.0452 20.3861 37.1412 20.3107C37.2371 20.2352 37.3293 20.1561 37.4168 20.0752C37.5043 19.9934 37.588 19.9097 37.6661 19.8225C37.7451 19.7352 37.8194 19.6452 37.89 19.5515L37.9718 19.4461L38.0537 19.3406L38.1355 19.2351L38.2174 19.1297L38.2992 19.0242L38.381 18.9187L38.4629 18.8133L38.5447 18.7078L38.5485 18.7115L38.5523 18.7151L38.556 18.7187L38.5598 18.7224L38.5635 18.726L38.5673 18.7296L38.5711 18.7333L38.5748 18.7369L38.5438 18.8015L38.5127 18.866L38.4817 18.9306L38.4507 18.9951L38.4196 19.0597L38.3886 19.1242L38.3575 19.1888L38.3265 19.2533C38.2898 19.3288 38.2559 19.4033 38.2239 19.4761C38.192 19.5488 38.1628 19.6206 38.1355 19.6915C38.1082 19.7624 38.0828 19.8315 38.0603 19.8988C38.0377 19.9661 38.017 20.0334 37.9991 20.0988C37.9812 20.1643 37.9652 20.2289 37.9511 20.2916C37.937 20.3543 37.9257 20.4161 37.9173 20.4761C37.9079 20.5361 37.9013 20.5952 37.8966 20.6534C37.8919 20.7116 37.89 20.768 37.89 20.8234C37.89 20.9735 37.953 21.1098 38.0546 21.208C38.1562 21.3062 38.2973 21.3671 38.4525 21.3671H38.7611H39.0696H39.6595H40.2493H40.8391H41.429H41.7253H42.0216C42.1834 21.3671 42.3302 21.3035 42.4355 21.2017C42.5409 21.0998 42.6067 20.958 42.6067 20.8016V19.8015V18.8015V17.5186V16.2358V14.953V13.6702V12.3873V11.1045C42.6067 10.9009 42.5954 10.7027 42.5729 10.509C42.5503 10.3163 42.5164 10.129 42.4713 9.94625C42.4261 9.76442 42.3697 9.58714 42.3019 9.41622C42.2342 9.24529 42.1552 9.07891 42.0649 8.9189C41.9746 8.75889 41.873 8.60342 41.7591 8.45432C41.6463 8.30522 41.5221 8.16066 41.3857 8.02156C41.2502 7.88246 41.1025 7.74972 40.9445 7.62153C40.794 7.48607 40.6246 7.36424 40.444 7.24696ZM37.2729 16.1076C37.2729 16.1985 37.2672 16.2867 37.256 16.3731C37.2447 16.4595 37.2268 16.544 37.2042 16.6268C37.1807 16.7095 37.1525 16.7904 37.1177 16.8695C37.0829 16.9486 37.0424 17.025 36.9963 17.1004C36.9502 17.175 36.8985 17.2486 36.8402 17.3195C36.7828 17.3905 36.7188 17.4595 36.6492 17.5268C36.5796 17.5941 36.5053 17.6587 36.4244 17.7223C36.3435 17.785 36.2569 17.8459 36.1647 17.905C36.0725 17.9641 35.9775 18.0196 35.8806 18.0714C35.7837 18.1232 35.685 18.1714 35.5834 18.216C35.4818 18.2605 35.3783 18.3005 35.2729 18.3378C35.1676 18.3751 35.0594 18.4078 34.9493 18.4378C34.8393 18.4678 34.7273 18.4933 34.6126 18.5151C34.4978 18.5369 34.3821 18.556 34.2626 18.5705C34.1441 18.5851 34.0227 18.596 33.8995 18.6042C33.7763 18.6115 33.6511 18.6151 33.5232 18.6151C33.432 18.6151 33.3426 18.6124 33.256 18.6078C33.1686 18.6033 33.0839 18.596 33.0011 18.5869C32.9183 18.5778 32.8374 18.566 32.7584 18.5524C32.6794 18.5387 32.6023 18.5224 32.5279 18.5042C32.4527 18.486 32.3802 18.4651 32.3097 18.4423C32.2391 18.4196 32.1705 18.3942 32.1037 18.3669C32.0369 18.3396 31.972 18.3096 31.9099 18.2778C31.8469 18.246 31.7867 18.2114 31.7283 18.1751C31.67 18.1387 31.6145 18.1005 31.5637 18.0614C31.5129 18.0223 31.4649 17.9814 31.4207 17.9396C31.3765 17.8978 31.3361 17.855 31.3003 17.8105C31.2636 17.7659 31.2307 17.7205 31.2015 17.6732C31.1724 17.6259 31.147 17.5777 31.1244 17.5277C31.1028 17.4777 31.0839 17.4268 31.0698 17.3741C31.0548 17.3214 31.0444 17.2677 31.0369 17.2123C31.0294 17.1568 31.0256 17.1004 31.0256 17.0422C31.0256 16.9768 31.0284 16.9131 31.0341 16.8513C31.0397 16.7895 31.0491 16.7304 31.0604 16.6722C31.0717 16.614 31.0868 16.5586 31.1046 16.504C31.1225 16.4495 31.1423 16.3977 31.1658 16.3476C31.1893 16.2976 31.2156 16.2485 31.2448 16.2022C31.274 16.1558 31.306 16.1113 31.3417 16.0685C31.3765 16.0258 31.4151 15.9849 31.4555 15.9458C31.4969 15.9067 31.5402 15.8694 31.5872 15.834C31.6343 15.7985 31.6841 15.7649 31.7377 15.7312C31.7914 15.6985 31.8487 15.6667 31.9089 15.6358C31.9692 15.6049 32.0331 15.5749 32.1008 15.5467C32.1686 15.5185 32.2391 15.4903 32.3135 15.4639C32.3878 15.4376 32.4649 15.4121 32.5468 15.3876C32.6277 15.363 32.7123 15.3403 32.7998 15.3185C32.8873 15.2967 32.9785 15.2757 33.0735 15.2557C33.1686 15.2357 33.2664 15.2176 33.368 15.1994L33.8562 15.1166L34.3445 15.0339L34.8327 14.9512L35.3209 14.8684L35.8091 14.7857L36.2974 14.703L36.7856 14.6202L37.2738 14.5375V14.7339V14.9303V15.1266V15.323V15.5194V15.7158V15.9122V16.1076H37.2729Z" fill="var(--fill-0, #102C57)"/>
<path id="Vector_7" d="M55.2217 5.8432C54.9668 5.8432 54.7184 5.8532 54.4766 5.87411C54.2349 5.89502 53.9997 5.92593 53.7711 5.96775C53.5425 6.00957 53.3205 6.06139 53.1041 6.12322C52.8887 6.18504 52.6789 6.25777 52.4767 6.34051C52.2744 6.42324 52.0778 6.51688 51.8878 6.62053C51.6978 6.72417 51.5153 6.83782 51.3384 6.96237C51.1616 7.08693 50.9913 7.22148 50.8276 7.36604C50.6639 7.51151 50.5068 7.66606 50.3563 7.83244L50.282 7.91154L50.2077 7.99063L50.1334 8.06973L50.0591 8.14882L49.9847 8.22792L49.9104 8.30702L49.8361 8.38612L49.7618 8.46521L49.7458 8.45794L49.7298 8.45067L49.7138 8.44339L49.6978 8.43612L49.6818 8.42884L49.6658 8.42158L49.6499 8.4143L49.6339 8.40703L49.6574 8.37339L49.6809 8.33975L49.7044 8.30611L49.7279 8.27247L49.7514 8.23883L49.775 8.20519L49.7985 8.17155L49.822 8.13792C49.8662 8.06791 49.9076 7.9979 49.9462 7.92972C49.9847 7.86153 50.0205 7.79425 50.0534 7.72698C50.0863 7.66061 50.1174 7.59515 50.1447 7.5306C50.1719 7.46605 50.1973 7.40241 50.219 7.33967C50.2406 7.27694 50.2604 7.21512 50.2773 7.1542C50.2942 7.09329 50.3074 7.03329 50.3187 6.97419C50.33 6.9151 50.3385 6.85691 50.3432 6.79963C50.3488 6.74236 50.3516 6.68599 50.3516 6.63144V6.58598V6.54052V6.49506V6.44961V6.40415V6.35869V6.31323V6.26777H50.1023H49.853H49.6038H49.3545H49.1052H48.8559H48.6066H48.3573C48.1447 6.26777 47.9359 6.28869 47.7355 6.32869C47.5342 6.36869 47.3404 6.42688 47.156 6.50234C46.9716 6.5778 46.7957 6.67053 46.632 6.7769C46.4674 6.88418 46.315 7.00601 46.1749 7.14148C46.0356 7.27603 45.9086 7.42422 45.7976 7.58333C45.6866 7.74243 45.5916 7.91153 45.5135 8.08973C45.4355 8.26793 45.3753 8.45521 45.3339 8.64977C45.2925 8.84433 45.2708 9.04526 45.2708 9.25073V10.7618V12.2728V13.7838V15.2948V16.8058V18.3169V19.5233V20.7298C45.2708 20.898 45.3414 21.0507 45.4552 21.1607C45.569 21.2707 45.7271 21.3389 45.9011 21.3389H46.221H46.5408H47.1758H47.8108H48.4457H49.0807H49.4006H49.7204C49.8944 21.3389 50.0525 21.2707 50.1663 21.1607C50.2801 21.0507 50.3507 20.898 50.3507 20.7298V19.9461V19.1624V18.0732V16.984V15.8949V14.803V13.7138V12.6246C50.3507 12.4837 50.3554 12.3473 50.3648 12.2137C50.3742 12.08 50.3883 11.95 50.4081 11.8246C50.4278 11.6991 50.4513 11.5755 50.4796 11.4564C50.5087 11.3373 50.5416 11.2218 50.5802 11.11C50.6188 10.9981 50.6621 10.8899 50.71 10.7854C50.758 10.6808 50.8107 10.5799 50.8681 10.4826C50.9255 10.3854 50.9875 10.2917 51.0553 10.2017C51.1221 10.1117 51.1945 10.0253 51.2707 9.9426C51.3469 9.85986 51.4278 9.78168 51.5115 9.70985C51.5952 9.63712 51.6827 9.56984 51.773 9.50802C51.8633 9.44619 51.9574 9.38892 52.0553 9.3371C52.1531 9.28528 52.2537 9.23891 52.3582 9.19709C52.4626 9.15526 52.5708 9.11981 52.6827 9.08799C52.7947 9.05707 52.9094 9.03071 53.0279 9.01071C53.1465 8.9898 53.2688 8.97434 53.3939 8.96434C53.519 8.95434 53.6488 8.94889 53.7815 8.94889C54.0392 8.94889 54.28 8.96707 54.5049 9.00434C54.7297 9.04071 54.9395 9.09617 55.1323 9.16981C55.3252 9.24345 55.502 9.33528 55.6629 9.44528C55.8237 9.55529 55.9686 9.6844 56.0975 9.83077C56.2264 9.97806 56.3383 10.1426 56.4352 10.3263C56.5321 10.5099 56.6121 10.7117 56.676 10.9327C56.74 11.1527 56.7889 11.3918 56.8209 11.6491C56.8529 11.9064 56.8689 12.1819 56.8689 12.4755V13.5829V14.6902V15.7976V16.9049V18.0123V19.1197V19.9224V20.7252C56.8689 20.8934 56.9394 21.0462 57.0533 21.1562C57.1671 21.2662 57.3251 21.3344 57.4992 21.3344H57.819H58.1388H58.7738H59.4088H60.0438H60.6788H60.9986H61.3184C61.4925 21.3344 61.6505 21.2662 61.7643 21.1562C61.8782 21.0462 61.9487 20.8934 61.9487 20.7252V19.9488V19.1724V18.0914V17.0104V15.9294V14.8484V13.7665V12.6855C61.9487 12.4046 61.9393 12.1319 61.9214 11.8673C61.9036 11.6027 61.8772 11.3472 61.8415 11.1C61.8057 10.8527 61.7615 10.6136 61.7079 10.3835C61.6543 10.1535 61.5922 9.93078 61.5207 9.71803C61.4492 9.50438 61.3692 9.29982 61.2799 9.10254C61.1905 8.90525 61.0927 8.71796 60.9854 8.53795C60.8782 8.35793 60.7625 8.18701 60.6374 8.02427C60.5123 7.86153 60.3787 7.70788 60.2357 7.56151C60.0927 7.41604 59.9412 7.27967 59.7823 7.15239C59.6233 7.0251 59.4549 6.90782 59.279 6.79872C59.1031 6.69053 58.9187 6.59052 58.7258 6.50052C58.533 6.41051 58.3326 6.3296 58.1228 6.25777C57.914 6.18595 57.6958 6.12413 57.47 6.07049C57.2442 6.01776 57.01 5.97321 56.7682 5.93866C56.5255 5.90411 56.2753 5.87865 56.0166 5.8632C55.7645 5.84774 55.4973 5.84138 55.2217 5.8432Z" fill="var(--fill-0, #102C57)"/>
<g id="Group_2">
<path id="Vector_8" d="M11.8878 18.2969V18.8933V19.4897V20.0861V20.6825C11.8878 20.7371 11.8774 20.7898 11.8586 20.838C11.8398 20.8862 11.8116 20.9307 11.7768 20.9698C11.742 21.0089 11.7006 21.0416 11.6535 21.0671C11.6065 21.0925 11.5548 21.1098 11.4983 21.118C10.679 21.2371 9.91793 21.3089 9.21522 21.3353C8.5125 21.3617 7.86717 21.3407 7.28017 21.2744C6.69317 21.208 6.16449 21.0944 5.69413 20.9353C5.22378 20.7762 4.8108 20.5698 4.45615 20.3179C4.17488 20.1252 3.92841 19.9061 3.71675 19.6615C3.50603 19.417 3.33012 19.146 3.18901 18.8487C3.04791 18.5524 2.94255 18.2296 2.872 17.8805C2.80144 17.5314 2.76664 17.1568 2.76664 16.7568V15.0312V13.3056V11.58V9.85442C2.76664 9.81533 2.75817 9.77805 2.74406 9.74441C2.72901 9.71078 2.70831 9.68077 2.68197 9.65441C2.65563 9.62804 2.62459 9.60804 2.58884 9.5944C2.55403 9.57985 2.51547 9.57258 2.47501 9.57258H2.42139H2.36777H2.31415H2.26053C1.94822 9.57258 1.65095 9.51167 1.38097 9.40075C1.11098 9.28983 0.867337 9.13073 0.662262 8.93254C0.457187 8.73434 0.292561 8.49977 0.177795 8.23794C0.0630276 7.97701 0 7.68971 0 7.38787V7.16058V6.93329V6.706V6.47871C0 6.4178 0.0131704 6.36052 0.0357475 6.30779C0.0583246 6.25506 0.0921896 6.20778 0.133581 6.16778C0.174972 6.12778 0.22389 6.09596 0.278451 6.07323C0.333013 6.0505 0.392278 6.03868 0.455306 6.03868H0.778909H1.10252H1.42612H1.74972C1.9341 6.03868 2.09497 6.01777 2.23325 5.97595C2.37154 5.93412 2.4863 5.87048 2.57849 5.78684C2.67068 5.7032 2.73935 5.59774 2.78545 5.47136C2.83154 5.34499 2.85412 5.19771 2.85412 5.02951C2.85412 4.72676 2.90868 4.43401 3.01028 4.16126C3.11188 3.88852 3.25957 3.63577 3.44583 3.41393C3.63209 3.19119 3.85598 2.99845 4.11091 2.84571C4.36584 2.69297 4.64994 2.57933 4.95661 2.51568L7.31027 2.02747C7.38083 2.01292 7.45044 2.01474 7.51535 2.03019C7.58026 2.04565 7.64046 2.07474 7.69126 2.11474C7.74206 2.15475 7.78439 2.20475 7.81356 2.26294C7.84272 2.32112 7.85965 2.38658 7.85965 2.45659V2.99299V3.52485V4.05671V4.58857C7.85965 4.76222 7.83895 4.92041 7.79662 5.06588C7.75429 5.21043 7.69126 5.34135 7.6066 5.45682C7.52193 5.57319 7.41657 5.67501 7.28958 5.7632C7.16258 5.85139 7.01489 5.92412 6.8465 5.98413V5.9914V5.99868V6.00595V6.01322L7.52852 6.01686L8.21054 6.02049L8.89255 6.02413L9.57457 6.02777C9.885 6.02959 10.1813 6.09232 10.4494 6.20324C10.7185 6.31415 10.9602 6.47508 11.1634 6.67236C11.3666 6.86965 11.5303 7.10421 11.6441 7.36514C11.758 7.62516 11.82 7.91155 11.82 8.21157V8.4425V8.67342V8.90435V9.13528C11.82 9.19619 11.8069 9.25347 11.7843 9.3062C11.7617 9.35893 11.7279 9.4062 11.6865 9.44621C11.6451 9.48621 11.5962 9.51803 11.5416 9.54076C11.487 9.56258 11.4278 9.57531 11.3647 9.57531H10.5614H9.75801H8.95464H8.15127C8.11082 9.57531 8.07225 9.58349 8.03745 9.59713C8.00264 9.61168 7.97159 9.63168 7.94431 9.65713C7.91703 9.68259 7.89634 9.71259 7.88223 9.74714C7.86717 9.78078 7.85965 9.81806 7.85965 9.85715V11.3527V12.8483V14.3439V15.8394C7.85965 16.0667 7.8794 16.274 7.91797 16.4622C7.95654 16.6495 8.01581 16.8168 8.09389 16.964C8.17196 17.1113 8.2698 17.2386 8.38645 17.345C8.5031 17.4523 8.64044 17.5386 8.7966 17.6059C8.93488 17.665 9.09292 17.715 9.27072 17.755C9.44851 17.795 9.64606 17.8259 9.86336 17.8478C10.0807 17.8687 10.3177 17.8814 10.5745 17.8832C10.8314 17.8859 11.1079 17.8787 11.4052 17.8623C11.4701 17.8587 11.5322 17.8687 11.5896 17.8896C11.647 17.9105 11.6978 17.9423 11.742 17.9823C11.7862 18.0223 11.821 18.0705 11.8454 18.125C11.8737 18.1751 11.8878 18.2341 11.8878 18.2969Z" fill="var(--fill-0, #102C57)"/>
</g>
</g>
</svg>
