<svg preserveAspectRatio="none" width="100%" height="100%" overflow="visible" style="display: block;" viewBox="0 0 18.9679 12.7398" fill="none" xmlns="http://www.w3.org/2000/svg">
<path id="Vector" d="M0.019234 4.86309C0.0380483 4.9131 0.0700316 4.95765 0.112364 4.99038C0.154696 5.0222 0.20832 5.0422 0.269467 5.0422H5.83566H11.209C11.5241 5.0422 11.8289 5.17857 12.0293 5.40132C12.2297 5.62497 12.3256 5.93499 12.2231 6.28229L10.7913 10.7035C10.4292 11.7463 10.3398 12.2537 10.3426 12.4991C10.3445 12.7455 10.4376 12.7301 10.4376 12.7301C10.6672 12.8182 11.1507 12.2909 11.5778 11.7409C12.0048 11.1908 12.3745 10.6172 12.3755 10.6144L18.7432 1.11372C19.0339 0.680961 19.0113 0.413666 18.8523 0.248199C18.6933 0.0827318 18.396 0.0209107 18.1392 0H8.829C8.18085 0 7.53834 0.0636391 6.90995 0.188194C6.28155 0.312749 5.66633 0.498219 5.07274 0.740965C4.47915 0.98371 3.90814 1.28464 3.36535 1.63921C2.82256 1.99379 0.0869625 4.55307 0.0869625 4.55307C0.0418084 4.59671 0.0154689 4.64853 0.00512106 4.70217C-0.00522677 4.75763 0.000419795 4.81309 0.019234 4.86309Z" fill="var(--fill-0, #DA649F)"/>
</svg>
